<svg width="32" height="33" viewBox="0 0 32 33" fill="none" xmlns="http://www.w3.org/2000/svg">
<path d="M26.667 15.2394H29.3336C29.3336 8.39936 24.1696 3.24069 17.3203 3.24069V5.90736C22.7363 5.90736 26.667 9.83136 26.667 15.2394Z" fill="#1B3C54"/>
<path d="M17.3337 11.2407C20.1377 11.2407 21.3337 12.4367 21.3337 15.2407H24.0004C24.0004 10.9407 21.6337 8.57403 17.3337 8.57403V11.2407ZM21.8964 18.498C21.6402 18.2652 21.3035 18.141 20.9575 18.1517C20.6114 18.1624 20.283 18.3071 20.0417 18.5554L16.851 21.8367C16.083 21.69 14.539 21.2087 12.9497 19.6234C11.3604 18.0327 10.879 16.4847 10.7364 15.722L14.015 12.53C14.2636 12.2889 14.4086 11.9605 14.4193 11.6143C14.43 11.2682 14.3056 10.9314 14.0724 10.6754L9.14571 5.25803C8.91243 5.00117 8.58821 4.84537 8.24191 4.82371C7.89561 4.80205 7.55451 4.91624 7.29104 5.14203L4.39771 7.62336C4.16719 7.85472 4.0296 8.16263 4.01104 8.4887C3.99104 8.82203 3.60971 16.718 9.73238 22.8434C15.0737 28.1834 21.7644 28.574 23.607 28.574C23.8764 28.574 24.0417 28.566 24.0857 28.5634C24.4117 28.5451 24.7195 28.4069 24.9497 28.1754L27.4297 25.2807C27.6557 25.0174 27.7701 24.6764 27.7487 24.3301C27.7273 23.9838 27.5717 23.6595 27.315 23.426L21.8964 18.498Z" fill="#1B3C54"/>
</svg>
