<svg width="32" height="33" viewBox="0 0 32 33" fill="none" xmlns="http://www.w3.org/2000/svg">
<path d="M16 2.23431C13.0837 2.23775 10.2878 3.39778 8.22564 5.45994C6.16348 7.52209 5.00345 10.318 5.00001 13.2343C4.99652 15.6175 5.77499 17.9361 7.21601 19.8343C7.21601 19.8343 7.51601 20.2293 7.56501 20.2863L16 30.2343L24.439 20.2813C24.483 20.2283 24.784 19.8343 24.784 19.8343L24.785 19.8313C26.2253 17.9339 27.0034 15.6164 27 13.2343C26.9966 10.318 25.8365 7.52209 23.7744 5.45994C21.7122 3.39778 18.9163 2.23775 16 2.23431V2.23431ZM16 17.2343C15.2089 17.2343 14.4355 16.9997 13.7777 16.5602C13.1199 16.1207 12.6072 15.496 12.3045 14.765C12.0017 14.0341 11.9225 13.2299 12.0769 12.454C12.2312 11.678 12.6122 10.9653 13.1716 10.4059C13.731 9.84648 14.4437 9.46551 15.2197 9.31117C15.9956 9.15683 16.7998 9.23604 17.5307 9.5388C18.2616 9.84155 18.8864 10.3542 19.3259 11.012C19.7654 11.6698 20 12.4432 20 13.2343C19.9987 14.2948 19.5768 15.3114 18.827 16.0613C18.0771 16.8111 17.0605 17.233 16 17.2343V17.2343Z" fill="#1B3C54"/>
</svg>
