<svg width="22" height="29" viewBox="0 0 22 29" fill="none" xmlns="http://www.w3.org/2000/svg">
<path d="M11 0.234314C8.08369 0.237754 5.28779 1.39778 3.22564 3.45994C1.16348 5.52209 0.00345217 8.31799 1.17029e-05 11.2343C-0.00348119 13.6175 0.774992 15.9361 2.21601 17.8343C2.21601 17.8343 2.51601 18.2293 2.56501 18.2863L11 28.2343L19.439 18.2813C19.483 18.2283 19.784 17.8343 19.784 17.8343L19.785 17.8313C21.2253 15.9339 22.0034 13.6164 22 11.2343C21.9966 8.31799 20.8365 5.52209 18.7744 3.45994C16.7122 1.39778 13.9163 0.237754 11 0.234314ZM11 15.2343C10.2089 15.2343 9.43553 14.9997 8.77773 14.5602C8.11993 14.1207 7.60724 13.496 7.30449 12.765C7.00174 12.0341 6.92253 11.2299 7.07687 10.454C7.23121 9.67803 7.61217 8.9653 8.17158 8.40589C8.73099 7.84648 9.44373 7.46551 10.2197 7.31117C10.9956 7.15683 11.7998 7.23604 12.5307 7.5388C13.2616 7.84155 13.8864 8.35424 14.3259 9.01203C14.7654 9.66983 15 10.4432 15 11.2343C14.9987 12.2948 14.5768 13.3114 13.827 14.0613C13.0771 14.8111 12.0605 15.233 11 15.2343Z" fill="#1B3C54"/>
</svg>
